REM DIRINDEX 1\2,1\3
REM DIRNAME folder01,folder02,folder03
TITLE ""
FILE "1801-1820.mp3" MP3
  TRACK 01 AUDIO
    TITLE "0:"
    INDEX 01 00:00:00
  TRACK 02 AUDIO
    TITLE "2:cjc039_2601"
    INDEX 01 00:00:25
  TRACK 03 AUDIO
    TITLE "0:"
    INDEX 01 00:01:26
  TRACK 04 AUDIO
    TITLE "3:cjc039_2602"
    INDEX 01 00:02:06
  TRACK 05 AUDIO
    TITLE "0:"
    INDEX 01 00:04:64
  TRACK 06 AUDIO
    TITLE "2:cjc039_2603"
    INDEX 01 00:06:45
  TRACK 07 AUDIO
    TITLE "0:"
    INDEX 01 00:08:01
  TRACK 08 AUDIO
    TITLE "3:cjc039_2604"
    INDEX 01 00:08:58
  TRACK 09 AUDIO
    TITLE "0:"
    INDEX 01 00:12:40
  TRACK 10 AUDIO
    TITLE "2:cjc039_2605"
    INDEX 01 00:14:11
  TRACK 11 AUDIO
    TITLE "0:"
    INDEX 01 00:15:11
  TRACK 12 AUDIO
    TITLE "3:cjc039_2606"
    INDEX 01 00:15:64
  TRACK 13 AUDIO
    TITLE "0:"
    INDEX 01 00:18:60
  TRACK 14 AUDIO
    TITLE "2:cjc039_2607"
    INDEX 01 00:20:34
  TRACK 15 AUDIO
    TITLE "0:"
    INDEX 01 00:21:64
  TRACK 16 AUDIO
    TITLE "3:cjc039_2608"
    INDEX 01 00:22:42
  TRACK 17 AUDIO
    TITLE "0:"
    INDEX 01 00:25:45
  TRACK 18 AUDIO
    TITLE "2:cjc039_2609"
    INDEX 01 00:27:22
  TRACK 19 AUDIO
    TITLE "0:"
    INDEX 01 00:28:35
  TRACK 20 AUDIO
    TITLE "3:cjc039_2610"
    INDEX 01 00:29:15
  TRACK 21 AUDIO
    TITLE "0:"
    INDEX 01 00:32:72
  TRACK 22 AUDIO
    TITLE "2:cjc039_2611"
    INDEX 01 00:34:45
  TRACK 23 AUDIO
    TITLE "0:"
    INDEX 01 00:35:53
  TRACK 24 AUDIO
    TITLE "3:cjc039_2612"
    INDEX 01 00:36:33
  TRACK 25 AUDIO
    TITLE "0:"
    INDEX 01 00:40:05
  TRACK 26 AUDIO
    TITLE "2:cjc039_2613"
    INDEX 01 00:41:55
  TRACK 27 AUDIO
    TITLE "0:"
    INDEX 01 00:42:70
  TRACK 28 AUDIO
    TITLE "3:cjc039_2614"
    INDEX 01 00:43:42
  TRACK 29 AUDIO
    TITLE "0:"
    INDEX 01 00:47:42
  TRACK 30 AUDIO
    TITLE "2:cjc039_2615"
    INDEX 01 00:49:16
  TRACK 31 AUDIO
    TITLE "0:"
    INDEX 01 00:50:21
  TRACK 32 AUDIO
    TITLE "3:cjc039_2616"
    INDEX 01 00:50:64
  TRACK 33 AUDIO
    TITLE "0:"
    INDEX 01 00:54:13
  TRACK 34 AUDIO
    TITLE "2:cjc039_2617"
    INDEX 01 00:55:57
  TRACK 35 AUDIO
    TITLE "0:"
    INDEX 01 00:56:65
  TRACK 36 AUDIO
    TITLE "3:cjc039_2618"
    INDEX 01 00:57:39
  TRACK 37 AUDIO
    TITLE "0:"
    INDEX 01 01:00:39
  TRACK 38 AUDIO
    TITLE "2:cjc039_2619"
    INDEX 01 01:02:14
  TRACK 39 AUDIO
    TITLE "0:"
    INDEX 01 01:03:35
  TRACK 40 AUDIO
    TITLE "3:cjc039_2620"
    INDEX 01 01:04:11
  TRACK 41 AUDIO
    TITLE "0:"
    INDEX 01 01:08:29
  TRACK 42 AUDIO
    TITLE "2:cjc039_2621"
    INDEX 01 01:10:04
  TRACK 43 AUDIO
    TITLE "0:"
    INDEX 01 01:11:05
  TRACK 44 AUDIO
    TITLE "3:cjc039_2622"
    INDEX 01 01:11:58
  TRACK 45 AUDIO
    TITLE "0:"
    INDEX 01 01:15:39
  TRACK 46 AUDIO
    TITLE "2:cjc039_2623"
    INDEX 01 01:17:10
  TRACK 47 AUDIO
    TITLE "0:"
    INDEX 01 01:18:66
  TRACK 48 AUDIO
    TITLE "3:cjc039_2624"
    INDEX 01 01:19:38
  TRACK 49 AUDIO
    TITLE "0:"
    INDEX 01 01:23:36
  TRACK 50 AUDIO
    TITLE "2:cjc039_2625"
    INDEX 01 01:25:09
  TRACK 51 AUDIO
    TITLE "0:"
    INDEX 01 01:26:25
  TRACK 52 AUDIO
    TITLE "3:cjc039_2626"
    INDEX 01 01:27:03
  TRACK 53 AUDIO
    TITLE "0:"
    INDEX 01 01:31:34
  TRACK 54 AUDIO
    TITLE "2:cjc039_2627"
    INDEX 01 01:33:09
  TRACK 55 AUDIO
    TITLE "0:"
    INDEX 01 01:34:36
  TRACK 56 AUDIO
    TITLE "3:cjc039_2628"
    INDEX 01 01:35:16
  TRACK 57 AUDIO
    TITLE "0:"
    INDEX 01 01:39:43
  TRACK 58 AUDIO
    TITLE "2:cjc039_2629"
    INDEX 01 01:41:20
  TRACK 59 AUDIO
    TITLE "0:"
    INDEX 01 01:42:30
  TRACK 60 AUDIO
    TITLE "3:cjc039_2630"
    INDEX 01 01:43:05
  TRACK 61 AUDIO
    TITLE "0:"
    INDEX 01 01:47:03
  TRACK 62 AUDIO
    TITLE "2:cjc039_2631"
    INDEX 01 01:48:54
  TRACK 63 AUDIO
    TITLE "0:"
    INDEX 01 01:49:73
  TRACK 64 AUDIO
    TITLE "3:cjc039_2632"
    INDEX 01 01:50:56
  TRACK 65 AUDIO
    TITLE "0:"
    INDEX 01 01:54:15
  TRACK 66 AUDIO
    TITLE "2:cjc039_2633"
    INDEX 01 01:55:65
  TRACK 67 AUDIO
    TITLE "0:"
    INDEX 01 01:56:69
  TRACK 68 AUDIO
    TITLE "3:cjc039_2634"
    INDEX 01 01:57:49
  TRACK 69 AUDIO
    TITLE "0:"
    INDEX 01 02:00:04
  TRACK 70 AUDIO
    TITLE "2:cjc039_2635"
    INDEX 01 02:01:58
  TRACK 71 AUDIO
    TITLE "0:"
    INDEX 01 02:03:12
  TRACK 72 AUDIO
    TITLE "3:cjc039_2636"
    INDEX 01 02:03:63
  TRACK 73 AUDIO
    TITLE "0:"
    INDEX 01 02:07:47
  TRACK 74 AUDIO
    TITLE "2:cjc039_2637"
    INDEX 01 02:09:24
  TRACK 75 AUDIO
    TITLE "0:"
    INDEX 01 02:10:49
  TRACK 76 AUDIO
    TITLE "3:cjc039_2638"
    INDEX 01 02:11:27
  TRACK 77 AUDIO
    TITLE "0:"
    INDEX 01 02:13:71
  TRACK 78 AUDIO
    TITLE "2:cjc039_2639"
    INDEX 01 02:15:51
  TRACK 79 AUDIO
    TITLE "0:"
    INDEX 01 02:17:14
  TRACK 80 AUDIO
    TITLE "3:cjc039_2640"
    INDEX 01 02:17:63
  TRACK 81 AUDIO
    TITLE "0:"
    INDEX 01 02:21:61
